<svg width="205" height="65" viewBox="0 0 205 65" fill="none" xmlns="http://www.w3.org/2000/svg">
<rect y="0.00268555" width="205" height="64.0004" fill="#444240"/>
<path d="M45.377 34.2255C45.291 35.1356 44.9551 35.8466 44.3691 36.3583C43.7832 36.8661 43.0039 37.12 42.0312 37.12C41.3516 37.12 40.752 36.9598 40.2324 36.6395C39.7168 36.3153 39.3184 35.8563 39.0371 35.2626C38.7559 34.6688 38.6094 33.9794 38.5977 33.1942V32.3973C38.5977 31.5927 38.7402 30.8837 39.0254 30.2704C39.3105 29.6571 39.7188 29.1844 40.25 28.8524C40.7852 28.5204 41.4023 28.3544 42.1016 28.3544C43.043 28.3544 43.8008 28.6102 44.375 29.1219C44.9492 29.6337 45.2832 30.3563 45.377 31.2899H43.9004C43.8301 30.6766 43.6504 30.2352 43.3613 29.9657C43.0762 29.6923 42.6562 29.5555 42.1016 29.5555C41.457 29.5555 40.9609 29.7919 40.6133 30.2645C40.2695 30.7333 40.0938 31.4227 40.0859 32.3329V33.0887C40.0859 34.0106 40.25 34.7137 40.5781 35.1981C40.9102 35.6825 41.3945 35.9247 42.0312 35.9247C42.6133 35.9247 43.0508 35.7938 43.3438 35.5321C43.6367 35.2704 43.8223 34.8348 43.9004 34.2255H45.377ZM49.2289 28.4716L51.6898 35.0106L54.1449 28.4716H56.0609V37.0028H54.5844V34.1903L54.7309 30.4286L52.2113 37.0028H51.1508L48.6371 30.4344L48.7836 34.1903V37.0028H47.307V28.4716H49.2289ZM65.2273 32.9598C65.2273 33.7958 65.0828 34.5302 64.7938 35.163C64.5047 35.7919 64.0906 36.2762 63.5516 36.6161C63.0164 36.952 62.3992 37.12 61.7 37.12C61.0086 37.12 60.3914 36.952 59.8484 36.6161C59.3094 36.2762 58.8914 35.7938 58.5945 35.1688C58.3016 34.5438 58.1531 33.8231 58.1492 33.0067V32.5262C58.1492 31.6942 58.2957 30.9598 58.5887 30.3231C58.8855 29.6864 59.3016 29.2001 59.8367 28.8641C60.3758 28.5243 60.993 28.3544 61.6883 28.3544C62.3836 28.3544 62.9988 28.5223 63.534 28.8583C64.073 29.1903 64.4891 29.6708 64.782 30.2997C65.075 30.9247 65.2234 31.6532 65.2273 32.4852V32.9598ZM63.7449 32.5145C63.7449 31.5692 63.5652 30.8446 63.2059 30.3407C62.8504 29.8368 62.3445 29.5848 61.6883 29.5848C61.0477 29.5848 60.5457 29.8368 60.1824 30.3407C59.823 30.8407 59.6395 31.5497 59.6316 32.4677V32.9598C59.6316 33.8973 59.8133 34.6219 60.1766 35.1337C60.5438 35.6454 61.0516 35.9012 61.7 35.9012C62.3563 35.9012 62.8602 35.6512 63.2117 35.1512C63.5672 34.6512 63.7449 33.9208 63.7449 32.9598V32.5145ZM72.9641 29.6669H70.3039V37.0028H68.8332V29.6669H66.1965V28.4716H72.9641V29.6669ZM76.1715 33.8329V37.0028H74.6891V28.4716H77.9527C78.9059 28.4716 79.6617 28.7196 80.2203 29.2157C80.7828 29.7118 81.0641 30.368 81.0641 31.1844C81.0641 32.0204 80.7887 32.6708 80.2379 33.1356C79.691 33.6005 78.9234 33.8329 77.9352 33.8329H76.1715ZM76.1715 32.6434H77.9527C78.4801 32.6434 78.8824 32.5204 79.1598 32.2743C79.4371 32.0243 79.5758 31.6649 79.5758 31.1962C79.5758 30.7352 79.4352 30.368 79.1539 30.0946C78.8727 29.8173 78.4859 29.6747 77.9938 29.6669H76.1715V32.6434ZM87.9512 33.1942H84.4473V35.8192H88.543V37.0028H82.9648V28.4716H88.502V29.6669H84.4473V32.0223H87.9512V33.1942ZM96.6312 29.6669H93.9711V37.0028H92.5004V29.6669H89.8637V28.4716H96.6312V29.6669ZM99.909 31.7352H101.655C102.28 31.7352 102.825 31.8427 103.29 32.0575C103.755 32.2723 104.108 32.577 104.35 32.9716C104.593 33.3661 104.714 33.8231 104.714 34.3427C104.714 35.1395 104.442 35.7802 103.899 36.2645C103.36 36.7489 102.624 36.995 101.69 37.0028H98.4266V28.4716H99.909V31.7352ZM99.909 32.9247V35.8192H101.649C102.149 35.8192 102.538 35.6844 102.815 35.4149C103.096 35.1415 103.237 34.7802 103.237 34.3309C103.237 33.9012 103.1 33.5614 102.827 33.3114C102.554 33.0614 102.175 32.9325 101.69 32.9247H99.909ZM112.711 33.3466H111.703V37.0028H110.226V28.4716H111.703V32.0575H112.517L115.025 28.4716H116.841L113.912 32.5555L117.099 37.0028H115.318L112.711 33.3466ZM123.295 35.0165H119.99L119.299 37.0028H117.758L120.98 28.4716H122.311L125.539 37.0028H123.992L123.295 35.0165ZM120.406 33.8212H122.879L121.643 30.2821L120.406 33.8212ZM132.573 29.6669H129.912V37.0028H128.442V29.6669H125.805V28.4716H132.573V29.6669ZM138.37 35.0165H135.065L134.374 37.0028H132.833L136.055 28.4716H137.386L140.614 37.0028H139.067L138.37 35.0165ZM135.481 33.8212H137.954L136.718 30.2821L135.481 33.8212ZM149.001 28.4716V37.0028H147.525V29.6669H144.911L144.759 32.9657C144.7 33.9969 144.573 34.7977 144.378 35.368C144.187 35.9344 143.907 36.3485 143.54 36.6102C143.173 36.8719 142.681 37.0028 142.064 37.0028H141.689V35.8192L141.923 35.8016C142.263 35.7704 142.525 35.6512 142.708 35.4442C142.896 35.2372 143.036 34.9247 143.13 34.5067C143.228 34.0848 143.296 33.4657 143.335 32.6493L143.499 28.4716H149.001ZM158.197 32.9598C158.197 33.7958 158.052 34.5302 157.763 35.163C157.474 35.7919 157.06 36.2762 156.521 36.6161C155.986 36.952 155.369 37.12 154.67 37.12C153.978 37.12 153.361 36.952 152.818 36.6161C152.279 36.2762 151.861 35.7938 151.564 35.1688C151.271 34.5438 151.123 33.8231 151.119 33.0067V32.5262C151.119 31.6942 151.265 30.9598 151.558 30.3231C151.855 29.6864 152.271 29.2001 152.806 28.8641C153.345 28.5243 153.963 28.3544 154.658 28.3544C155.353 28.3544 155.968 28.5223 156.504 28.8583C157.043 29.1903 157.459 29.6708 157.752 30.2997C158.045 30.9247 158.193 31.6532 158.197 32.4852V32.9598ZM156.714 32.5145C156.714 31.5692 156.535 30.8446 156.175 30.3407C155.82 29.8368 155.314 29.5848 154.658 29.5848C154.017 29.5848 153.515 29.8368 153.152 30.3407C152.793 30.8407 152.609 31.5497 152.601 32.4677V32.9598C152.601 33.8973 152.783 34.6219 153.146 35.1337C153.513 35.6454 154.021 35.9012 154.67 35.9012C155.326 35.9012 155.83 35.6512 156.181 35.1512C156.537 34.6512 156.714 33.9208 156.714 32.9598V32.5145ZM165.729 29.6669H161.791V37.0028H160.314V28.4716H165.729V29.6669Z" fill="white"/>
</svg>
